G04 pcbflow Gerber RS-274X export*
G75*
%MOMM*%
%FSLAX34Y34*%
%LPD*%
%IN*%
%IPPOS*%
%AMOC8*
5,1,8,0,0,1.08239X$1,22.5*%
G01*
%ADD10C,0.010000*%
%TF.FileFunction,*%G36*
X0244904Y0039025D02*
X0244785Y0038549D01*
X0244619Y0038087D01*
X0244410Y0037643D01*
X0244157Y0037222D01*
X0243865Y0036828D01*
X0243536Y0036464D01*
X0243172Y0036135D01*
X0242778Y0035843D01*
X0242357Y0035590D01*
X0241913Y0035381D01*
X0241451Y0035215D01*
X0240975Y0035096D01*
X0240490Y0035024D01*
X0240000Y0035000D01*
X0239510Y0035024D01*
X0239025Y0035096D01*
X0238549Y0035215D01*
X0238087Y0035381D01*
X0237643Y0035590D01*
X0237222Y0035843D01*
X0236828Y0036135D01*
X0236464Y0036464D01*
X0236135Y0036828D01*
X0235843Y0037222D01*
X0235590Y0037643D01*
X0235381Y0038087D01*
X0235215Y0038549D01*
X0235096Y0039025D01*
X0235024Y0039510D01*
X0235000Y0040000D01*
X0235024Y0040490D01*
X0235096Y0040975D01*
X0235215Y0041451D01*
X0235381Y0041913D01*
X0235590Y0042357D01*
X0235843Y0042778D01*
X0236135Y0043172D01*
X0236464Y0043536D01*
X0236828Y0043865D01*
X0237222Y0044157D01*
X0237643Y0044410D01*
X0238087Y0044619D01*
X0238549Y0044785D01*
X0239025Y0044904D01*
X0239510Y0044976D01*
X0240000Y0045000D01*
X0240490Y0044976D01*
X0240975Y0044904D01*
X0241451Y0044785D01*
X0241913Y0044619D01*
X0242357Y0044410D01*
X0242778Y0044157D01*
X0243172Y0043865D01*
X0243536Y0043536D01*
X0243865Y0043172D01*
X0244157Y0042778D01*
X0244410Y0042357D01*
X0244619Y0041913D01*
X0244785Y0041451D01*
X0244904Y0040975D01*
X0244976Y0040490D01*
X0245000Y0040000D01*
X0244976Y0039510D01*
X0244904Y0039025D01*
G37*

G36*
X0264904Y0039025D02*
X0264785Y0038549D01*
X0264619Y0038087D01*
X0264410Y0037643D01*
X0264157Y0037222D01*
X0263865Y0036828D01*
X0263536Y0036464D01*
X0263172Y0036135D01*
X0262778Y0035843D01*
X0262357Y0035590D01*
X0261913Y0035381D01*
X0261451Y0035215D01*
X0260975Y0035096D01*
X0260490Y0035024D01*
X0260000Y0035000D01*
X0259510Y0035024D01*
X0259025Y0035096D01*
X0258549Y0035215D01*
X0258087Y0035381D01*
X0257643Y0035590D01*
X0257222Y0035843D01*
X0256828Y0036135D01*
X0256464Y0036464D01*
X0256135Y0036828D01*
X0255843Y0037222D01*
X0255590Y0037643D01*
X0255381Y0038087D01*
X0255215Y0038549D01*
X0255096Y0039025D01*
X0255024Y0039510D01*
X0255000Y0040000D01*
X0255024Y0040490D01*
X0255096Y0040975D01*
X0255215Y0041451D01*
X0255381Y0041913D01*
X0255590Y0042357D01*
X0255843Y0042778D01*
X0256135Y0043172D01*
X0256464Y0043536D01*
X0256828Y0043865D01*
X0257222Y0044157D01*
X0257643Y0044410D01*
X0258087Y0044619D01*
X0258549Y0044785D01*
X0259025Y0044904D01*
X0259510Y0044976D01*
X0260000Y0045000D01*
X0260490Y0044976D01*
X0260975Y0044904D01*
X0261451Y0044785D01*
X0261913Y0044619D01*
X0262357Y0044410D01*
X0262778Y0044157D01*
X0263172Y0043865D01*
X0263536Y0043536D01*
X0263865Y0043172D01*
X0264157Y0042778D01*
X0264410Y0042357D01*
X0264619Y0041913D01*
X0264785Y0041451D01*
X0264904Y0040975D01*
X0264976Y0040490D01*
X0265000Y0040000D01*
X0264976Y0039510D01*
X0264904Y0039025D01*
G37*

M02*
